<?xml version="1.0" ?><svg height="64" id="svg8" version="1.1" viewBox="0 0 16.933333 16.933334" width="64" xmlns="http://www.w3.org/2000/svg" xmlns:cc="http://creativecommons.org/ns#" xmlns:dc="http://purl.org/dc/elements/1.1/" xmlns:inkscape="http://www.inkscape.org/namespaces/inkscape" xmlns:rdf="http://www.w3.org/1999/02/22-rdf-syntax-ns#" xmlns:sodipodi="http://sodipodi.sourceforge.net/DTD/sodipodi-0.dtd" xmlns:svg="http://www.w3.org/2000/svg"><defs id="defs2"/><g id="layer1"><path d="m 2.9114445,3.438034 v 0.5167643 c -0.16573,0.1738101 -0.26562,0.4199486 -0.26562,0.6805785 0,0.4915897 0.3551199,0.9342998 0.8381899,0.9343099 0.0308,0 0.0601,-0.00119 0.0904,-0.00517 0.1724202,0.4861701 0.4997,0.8989063 0.92345,1.1808066 -2.3e-4,0.1288579 -5.03e-4,0.2567498 -5.03e-4,0.3860229 -0.5288899,0.243306 -1.0585497,0.4855085 -1.5895698,0.7291543 -0.30461,0.1469004 -0.60588,0.2813037 -0.863,0.4831747 -0.2751,0.2159937 -0.46616,0.4898784 -0.5271,0.8733319 L 1.1600844,11.468549 c -0.37266997,0.164727 -0.63096997,0.536233 -0.63096997,0.966866 v 2.910417 c 0,0.58174 0.46678,1.058334 1.05884997,1.058334 h 5.29064 c 0.59207,0 1.05885,-0.476594 1.05885,-1.058334 v -1.852083 h 1.13068 c 0.41087,0 0.81014,-0.15956 1.0929496,-0.410828 0.29527,-0.262325 0.47543,-0.643112 0.40928,-1.059367 L 10.124914,9.2170071 C 10.064014,8.8335536 9.8729144,8.5596689 9.5978144,8.3436752 c -0.25711,-0.201871 -0.55864,-0.3362743 -0.86351,-0.4831747 -0.5312,-0.2438103 -1.06066,-0.4858956 -1.58957,-0.7291543 3e-5,-0.1285799 -2.1e-4,-0.2557979 -5.29e-4,-0.383956 0.42376,-0.2818799 0.75154,-0.6925794 0.92398,-1.1839069 0.0304,0.004 0.0612,0.0062 0.092,0.0062 0.48307,0 0.83562,-0.4427101 0.83561,-0.9343099 0,-0.2603604 -0.0987,-0.5062818 -0.26355,-0.6800618 V 3.438034 c 2.9e-5,-1.6081605 -1.301911,-2.90886648 -2.909881,-2.90886648 -1.59919,0 -2.9109199,1.28830438 -2.9109199,2.90886648 z M 14.550524,1.058851 c -0.146121,-5.589e-4 -0.265036,0.1174289 -0.26562,0.2635498 v 3.1755167 h -0.52658 V 2.1156341 C 13.757743,1.9703208 13.640087,1.8526652 13.494774,1.8520843 h -1.05833 c -0.146121,-5.589e-4 -0.265036,0.1174289 -0.26562,0.2635498 v 2.3822834 h -0.52917 V 2.9093841 C 11.641073,2.7640708 11.523417,2.6464152 11.378104,2.6458343 h -1.05833 c -0.14632,-8.417e-4 -0.265546,0.1172288 -0.26613,0.2635498 V 4.4979175 H 9.7895744 c -0.35286,0 -0.35286,0.5291667 0,0.5291667 h 6.3499996 c 0.35286,0 0.35286,-0.5291667 0,-0.5291667 h -0.26665 V 1.3224008 C 15.872343,1.1770875 15.754687,1.0594319 15.609374,1.058851 Z M 6.6962244,3.3656887 c 0.0659,0.1782101 0.16865,0.3422605 0.30541,0.4790406 0.1845,0.1845299 0.42037,0.310252 0.67231,0.3622519 v 0.5710245 c 0,1.0202601 -0.82877,1.8365804 -1.85209,1.8365804 -1.03157,0 -1.8515599,-0.8163203 -1.8515599,-1.8365804 v -0.550354 c 1.0510199,-0.0436 2.0417699,-0.3556926 2.7259299,-0.861963 z m 1.50688,0.8717815 c 0.13529,0.0265 0.26241,0.1844 0.26459,0.3979084 -0.003,0.2307998 -0.13975,0.3840094 -0.28009,0.4025596 0.009,-0.0854 0.0155,-0.1720524 0.0155,-0.2599325 z m -4.76301,5.291e-4 c 0,0.2798281 -0.006,0.6582802 0.014999,0.7999513 -0.1403598,-0.018624 -0.28008,-0.1717598 -0.28008,-0.4025595 0,-0.2168988 0.1296199,-0.3711483 0.2651001,-0.3973918 z M 14.287494,6.3494984 v 0.5291638 c 0,0.1763345 0.13233,0.2648739 0.26458,0.2651001 0.13225,-2.262e-4 0.26458,-0.088766 0.26458,-0.2651001 V 6.3494955 c 0,-0.1466159 -0.11042,-0.2606799 -0.26458,-0.2635484 -0.15416,0.00287 -0.26458,0.1169354 -0.26458,0.2635513 z m -1.35599,0.6077149 0.37517,0.3731038 c 0.26106,0.2427671 0.61656,-0.1230135 0.37517,-0.3731038 L 13.306674,6.582031 c -0.0498,-0.051206 -0.11408,-0.076994 -0.18552,-0.076992 -0.23918,-0.00184 -0.35477,0.2883874 -0.18965,0.4521743 z m 3.05149,-0.4521687 c -0.0714,3.7e-6 -0.13571,0.025792 -0.18552,0.076998 l -0.37517,0.375171 c -0.24139,0.2500902 0.11411,0.6158709 0.37517,0.3731037 l 0.37517,-0.3731037 c 0.16512,-0.1637872 0.0495,-0.4540192 -0.18965,-0.452169 z m -9.3678996,0.503845 v 0.3116091 l -0.66198,0.8805664 h -0.26355 L 5.0275944,7.3204844 V 7.009909 c 0.24848,0.087457 0.51589,0.1338419 0.79426,0.1338419 0.27793,0 0.54509,-0.047671 0.79324,-0.1348756 z m -1.99575,0.649056 0.58912,0.7828981 -0.42323,0.4242634 -0.74983,-0.9394775 z m 2.40399,0 0.58395,0.267684 -0.74983,0.9394775 -0.42323,-0.4242634 z m 7.3261696,0.107487 -1.58802,1.8515666 c -0.14825,0.1717688 -0.0254,0.4384338 0.20154,0.4377008 h 0.52917 c 0,1.407157 -0.38222,2.525425 -1.08779,3.292821 -0.69809,0.759267 -1.74543,1.205095 -3.1445096,1.205095 -0.16205,0 -0.26407,0.132865 -0.26407,0.266133 0,0.118961 0.097,0.263033 0.26407,0.263033 1.4215796,0 2.9973796,-0.06415 4.2281596,-0.726571 1.26432,-0.67153 2.12235,-1.988211 2.12235,-4.301028 0.15668,0.01511 0.36078,0.003 0.53227,5.29e-4 0.22414,-0.0042 0.34183,-0.2680106 0.19534,-0.4376995 l -1.58595,-1.8515913 c -0.0526,-0.061161 -0.13021,-0.094631 -0.21084,-0.091461 -0.0738,0.00255 -0.14353,0.035501 -0.19172,0.091472 z m -10.8117395,0.38809 1.0190599,1.2722742 c 0.0985,0.1223962 0.28134,0.1325012 0.39274,0.021704 l 0.0749,-0.074931 0.23461,0.2304774 -0.20671,0.7152008 h -1.64641 c -0.42414,0 -0.75964,0.344872 -0.75964,0.761712 v 0.297139 h -0.93483 l 0.3297,-2.0763594 c 0.04,-0.2518095 0.15982,-0.4060528 0.33176,-0.5410523 0.18426,-0.1446678 0.45144,-0.2721628 0.75964,-0.4206462 z m 4.5671599,0 0.40514,0.1855187 c 0.30795,0.1484861 0.57539,0.2759784 0.75965,0.4206463 0.17194,0.1349994 0.29174,0.2892425 0.33176,0.5410523 l 0.4454496,2.8065481 c 0.0348,0.219003 -0.0606,0.421984 -0.2382296,0.579809 -0.1933,0.171739 -0.46415,0.277501 -0.74052,0.277502 h -1.13068 v -0.529181 c 0,-0.57579 -0.46078,-1.048206 -1.04128,-1.057817 l -0.51263,-1.7745684 0.23461,-0.2304772 0.0749,0.074931 c 0.1114,0.1107961 0.29423,0.1006922 0.39274,-0.021704 z m -2.43861,0.5767099 h 0.31006 l 0.2682,0.2682008 -0.42323,0.4154781 -0.42323,-0.4154781 z m 0.0232,1.2841595 c 0.0411,0.02353 0.0863,0.03157 0.13126,0.03152 h 5.29e-4 c 0.045,4.5e-5 0.0902,-0.008 0.13126,-0.03152 l 0.392221,1.362708 h -0.524531 v -0.297143 c 0,-0.231864 -0.10307,-0.440482 -0.2682,-0.580843 z m -2.2835785,0.833024 h 1.6546795 c 0.13282,0 0.230481,0.108482 0.230481,0.232544 V 11.3771 H 3.1754558 v -0.297143 c 0,-0.124062 0.0977,-0.232544 0.2304801,-0.232544 z m -1.8179802,1.05885 h 5.2906407 c 0.2905,0 0.529679,0.231432 0.529679,0.529167 v 0.26355 c 0,0.646377 -0.454309,1.176895 -1.05885,1.298111 v -0.239261 c 0,-0.162568 -0.1309,-0.26355 -0.26562,-0.26355 h -1.058329 c -0.14541,5.03e-4 -0.263551,0.118141 -0.264071,0.26355 v 0.265616 H 3.7051458 V 13.757833 C 3.7046166,13.612424 3.5864857,13.494785 3.4410757,13.494283 H 2.3827444 c -0.13472,0 -0.26562,0.100982 -0.26562,0.26355 v 0.239261 c -0.60454,-0.121227 -1.05885,-0.651746 -1.05885,-1.298123 v -0.263553 c 0,-0.297736 0.23918,-0.529167 0.52968,-0.529167 z m -0.5296799,2.091862 c 0.27694,0.282843 0.64491,0.475251 1.0588499,0.533817 v 0.284221 c -5.609e-4,0.146934 0.1186801,0.26669 0.26562,0.266133 h 1.05833 c 0.1461702,-5.29e-4 0.2646201,-0.119963 0.2640701,-0.266133 v -0.26355 h 1.0562596 v 0.26355 c -5.55e-4,0.14617 0.1179,0.265616 0.264071,0.266133 h 1.058329 c 0.146941,5.56e-4 0.266191,-0.119199 0.26562,-0.266133 v -0.284221 c 0.413941,-0.05857 0.781911,-0.250974 1.05885,-0.533817 v 1.347721 c 0,0.297735 -0.238149,0.529167 -0.529679,0.529167 h -5.290642 c -0.29153,0 -0.52968,-0.231432 -0.52968,-0.529167 z" id="path17351" style="color:#000000;display:inline;opacity:1;fill:#FFFFFF;stroke-width:1;stroke-linejoin:round"/></g></svg>
